# xmcd
#
# Track frame offsets:
# 150
# 14346
# 29063
# 43992
# 65425
# 82469
# 101805
# 120487
#
# Disc length: 1812 seconds
#
# Revision: 0
# Processed by: cddbd v1.5.1PL0 Copyright (c) Steve Scherf et al.
# Submitted via: Audion 3.0.2 (http://www.panic.com/audion/)
#
DISCID=73071208
DTITLE=Christine Havrilla - Ruby Red
DYEAR=1900
DGENRE=
TTITLE0=Sing
TTITLE1=Ruby Red
TTITLE2=Undone
TTITLE3=So Far Away
TTITLE4=Lonliest Girl
TTITLE5=Your Fall
TTITLE6=Every Now and Then
TTITLE7=Undone (reprise)
EXTD=
EXTT0=
EXTT1=
EXTT2=
EXTT3=
EXTT4=
EXTT5=
EXTT6=
EXTT7=
PLAYORDER=
